name D:\school\WTK\thesis\model\3dpredictsim\Results\batch_windlass\Pog_s1_tmt_aCst_d05_k800_WL20_ig24_act_TTC.mot
datacolumns 128
datarows 4
range 0.61147791 0.64816658
endheader
time	pelvis_tilt	pelvis_list	pelvis_rotation	pelvis_tx	pelvis_ty	pelvis_tz	hip_flexion_l	hip_adduction_l	hip_rotation_l	hip_flexion_r	hip_adduction_r	hip_rotation_r	knee_angle_l	knee_angle_r	ankle_angle_l	ankle_angle_r	subtalar_angle_l	subtalar_angle_r	tmt_angle_l	tmt_angle_r	mtp_angle_l	mtp_angle_r	lumbar_extension	lumbar_bending	lumbar_rotation	arm_flex_l	arm_add_l	arm_rot_l	arm_flex_r	arm_add_r	arm_rot_r	elbow_flex_l	elbow_flex_r	pro_sup_l	pro_sup_r	glut_med1_l/activation	glut_med2_l/activation	glut_med3_l/activation	glut_min1_l/activation	glut_min2_l/activation	glut_min3_l/activation	semimem_l/activation	semiten_l/activation	bifemlh_l/activation	bifemsh_l/activation	sar_l/activation	add_long_l/activation	add_brev_l/activation	add_mag1_l/activation	add_mag2_l/activation	add_mag3_l/activation	tfl_l/activation	pect_l/activation	grac_l/activation	glut_max1_l/activation	glut_max2_l/activation	glut_max3_l/activation	iliacus_l/activation	psoas_l/activation	quad_fem_l/activation	gem_l/activation	peri_l/activation	rect_fem_l/activation	vas_med_l/activation	vas_int_l/activation	vas_lat_l/activation	med_gas_l/activation	lat_gas_l/activation	soleus_l/activation	tib_post_l/activation	flex_dig_l/activation	flex_hal_l/activation	tib_ant_l/activation	per_brev_l/activation	per_long_l/activation	per_tert_l/activation	ext_dig_l/activation	ext_hal_l/activation	ercspn_l/activation	intobl_l/activation	extobl_l/activation	glut_med1_r/activation	glut_med2_r/activation	glut_med3_r/activation	glut_min1_r/activation	glut_min2_r/activation	glut_min3_r/activation	semimem_r/activation	semiten_r/activation	bifemlh_r/activation	bifemsh_r/activation	sar_r/activation	add_long_r/activation	add_brev_r/activation	add_mag1_r/activation	add_mag2_r/activation	add_mag3_r/activation	tfl_r/activation	pect_r/activation	grac_r/activation	glut_max1_r/activation	glut_max2_r/activation	glut_max3_r/activation	iliacus_r/activation	psoas_r/activation	quad_fem_r/activation	gem_r/activation	peri_r/activation	rect_fem_r/activation	vas_med_r/activation	vas_int_r/activation	vas_lat_r/activation	med_gas_r/activation	lat_gas_r/activation	soleus_r/activation	tib_post_r/activation	flex_dig_r/activation	flex_hal_r/activation	tib_ant_r/activation	per_brev_r/activation	per_long_r/activation	per_tert_r/activation	ext_dig_r/activation	ext_hal_r/activation	ercspn_r/activation	intobl_r/activation	extobl_r/activation	
          0.61147791	         -2.93017650	          0.50764323	         -9.64498955	          0.76434739	          0.85409618	          0.00242846	         33.34970039	         -1.42894451	         -3.36259149	        -15.80843018	         -3.00470361	          6.25182183	        -19.86369122	        -18.12290477	          0.60245975	        -11.44071465	          6.90217804	         18.11794651	         -0.14206632	         -7.53172556	          0.74469311	         37.06139451	          0.47526119	          2.45138885	          3.02789405	        -13.50026875	        -13.67881725	         10.69960842	          2.51812441	        -13.53184679	         15.67376763	         19.02796573	         43.90937520	         86.51662706	         86.51662706	          0.05000009	          0.05000015	          0.05568950	          0.05000039	          0.05000032	          0.05000029	          0.07281946	          0.06555934	          0.10500886	          0.06019129	          0.05202400	          0.06019192	          0.09620646	          0.13548876	          0.11027468	          0.10153723	          0.06019150	          0.06018946	          0.06019253	          0.05000014	          0.08476747	          0.10960911	          0.07010638	          0.06991583	          0.13716234	          0.05003098	          0.06687320	          0.05000004	          0.12358513	          0.12563570	          0.11109357	          0.07081721	          0.06019132	          0.06019129	          0.05873691	          0.06019127	          0.06019130	          0.51065231	          0.26548718	          0.15501488	          0.19847479	          0.54846659	          0.05000002	          0.05000000	          0.13883711	          0.12358215	          0.12942476	          0.07470447	          0.06611868	          0.15793337	          0.11777282	          0.08722640	          0.05000070	          0.05000006	          0.05000006	          0.05000003	          0.08722934	          0.13938985	          0.06356218	          0.05000070	          0.05000088	          0.05000056	          0.18304510	          0.05000051	          0.05000025	          0.05000149	          0.05000205	          0.06017423	          0.34718890	          0.37323331	          0.05357446	          0.05000033	          0.05000022	          0.23554499	          0.07927734	          0.09060256	          0.10194761	          0.13461597	          0.19647660	          0.05000000	          0.13735697	          0.14558619	          0.15947594	          0.16842769	          0.47135197	          0.36601264	          0.47667166	          0.42417970	          0.19212766	          0.05000000	          0.05419912	          0.06859676	
          0.62370747	         -2.92573944	          0.45370280	         -9.83686149	          0.78429248	          0.85246699	          0.00211054	         32.81208725	         -1.21294284	         -3.15535191	        -16.06289246	         -3.30008222	          6.02198507	        -20.18967440	        -19.14335773	          0.07687385	        -14.47793494	          6.43606729	         18.39415428	         -0.15652063	         -7.94932279	          0.89642930	         37.79331878	          0.71577073	          2.26009552	          3.12524139	        -14.98964341	        -13.67257339	         10.88195471	          2.11270305	        -13.60215479	         16.03191598	         18.97806499	         45.03078440	         86.51662706	         86.51662706	          0.09641100	          0.05000045	          0.10092650	          0.05000005	          0.05000006	          0.05000033	          0.06049003	          0.05445917	          0.08722927	          0.05000003	          0.05000008	          0.05000054	          0.07991728	          0.12641228	          0.18319658	          0.13053457	          0.05000023	          0.05000017	          0.05000107	          0.06019129	          0.11163955	          0.13491095	          0.05823631	          0.05807804	          0.19995018	          0.05000012	          0.06755204	          0.07245985	          0.27673408	          0.26004098	          0.23020213	          0.05882679	          0.05000002	          0.05000000	          0.05000000	          0.05000004	          0.05000001	          0.64738907	          0.22053620	          0.12876852	          0.55846223	          0.61176199	          0.30691585	          0.05000000	          0.11532989	          0.10265782	          0.10751121	          0.06205594	          0.07245980	          0.13119289	          0.09783212	          0.07245776	          0.05000102	          0.06019123	          0.06019138	          0.06019130	          0.07246015	          0.19611883	          0.15849330	          0.20013660	          0.05001941	          0.11943901	          0.15205280	          0.07721192	          0.07245948	          0.05000029	          0.05000017	          0.05000013	          0.28840457	          0.31003926	          0.05000104	          0.07245978	          0.06019145	          0.19566366	          0.06585450	          0.07526220	          0.10500851	          0.11182345	          0.16321013	          0.05000000	          0.11410036	          0.12093625	          0.13247425	          0.34727472	          0.45148637	          0.34345235	          0.71171303	          0.55720269	          0.15959756	          0.05010093	          0.06214632	          0.07245983	
          0.63593703	         -2.91596505	          0.41340376	         -9.98628423	          0.80431397	          0.85046171	          0.00180163	         32.12389869	         -0.96169021	         -2.88408817	        -16.12935869	         -3.57260319	          5.80118453	        -21.17318262	        -20.57936940	         -0.15598530	        -17.07300280	          5.92809107	         18.58677993	         -0.36098191	         -7.92039032	          1.00267421	         36.76724326	          0.95203025	          2.03652291	          3.20362692	        -16.42258868	        -13.68059877	         11.18953297	          1.66666765	        -13.68574549	         16.33429476	         18.85960780	         46.13855561	         86.51662706	         86.51662706	          0.21442914	          0.33190486	          0.50472560	          0.20026724	          0.05275360	          0.47321684	          0.06035366	          0.05000001	          0.07246006	          0.05000001	          0.05000031	          0.06019137	          0.08722926	          0.10500878	          0.15217864	          0.12329201	          0.05000004	          0.06019174	          0.06019175	          0.05000002	          0.18264541	          0.14226682	          0.06019129	          0.05692302	          0.16609560	          0.19179158	          0.36541551	          0.06019130	          0.29235540	          0.28551280	          0.25819125	          0.05722260	          0.05753870	          0.06019129	          0.13045609	          0.05000010	          0.05002900	          0.64017413	          0.18319608	          0.10696606	          0.46390613	          0.56049185	          0.29198396	          0.05436749	          0.09580279	          0.08527630	          0.31001991	          0.05697416	          0.06019127	          0.10897998	          0.08126769	          0.06018960	          0.06425060	          0.05000004	          0.05000011	          0.05000002	          0.06019158	          0.16291298	          0.21846120	          0.16625048	          0.06019101	          0.09921632	          0.12630798	          0.06413905	          0.06019106	          0.06019080	          0.06019115	          0.06019126	          0.23957331	          0.25754493	          0.06019128	          0.06019128	          0.05000013	          0.16253484	          0.08722905	          0.08722904	          0.08722904	          0.09289005	          0.13557619	          0.06209029	          0.09478144	          0.10045992	          0.11004436	          0.28847585	          0.38684433	          0.30170322	          0.71339383	          0.74852704	          0.42985974	          0.08970115	          0.05162401	          0.06019129	
          0.64816658	         -2.90521132	          0.38930442	        -10.08690888	          0.82407314	          0.84849558	          0.00147990	         31.36613863	         -0.67405704	         -2.59073049	        -16.00216372	         -3.83770939	          5.59870661	        -22.23205410	        -22.36122022	         -0.06203226	        -19.27987074	          5.35876063	         18.71179166	         -0.56870109	         -7.45216683	          1.14558362	         33.91870845	          1.16411629	          1.78289677	          3.26472946	        -17.70293242	        -13.68556426	         11.62691627	          1.25245082	        -13.75469556	         16.60071632	         18.59728634	         47.11036412	         86.51662706	         86.51662706	          0.31397699	          0.45793060	          0.54876868	          0.19203194	          0.39375983	          0.39309417	          0.05013490	          0.06019142	          0.06019148	          0.06019130	          0.05000007	          0.05000007	          0.07246003	          0.08722921	          0.12641252	          0.11957345	          0.05000007	          0.05000040	          0.05000053	          0.28054476	          0.23641837	          0.15527925	          0.05000000	          0.05000000	          0.14682226	          0.15931839	          0.30354518	          0.05000001	          0.40738536	          0.39548010	          0.35384304	          0.05000000	          0.05000000	          0.05000000	          0.15149920	          0.07983404	          0.05000008	          0.73853376	          0.15217821	          0.08885509	          0.38535984	          0.56662181	          0.38710080	          0.06058114	          0.07958193	          0.07083773	          0.25752893	          0.05000000	          0.05000000	          0.20546254	          0.06750787	          0.05000003	          0.08899543	          0.05000001	          0.05000001	          0.05000001	          0.05000030	          0.13532938	          0.18433175	          0.13810182	          0.05000063	          0.11235563	          0.10492215	          0.05327972	          0.05000002	          0.05000013	          0.05000008	          0.05000005	          0.19900993	          0.21393868	          0.05000000	          0.05000005	          0.05000002	          0.13501523	          0.07245986	          0.07245986	          0.07245985	          0.07716236	          0.11262109	          0.05157747	          0.07873351	          0.08345054	          0.09141219	          0.25265158	          0.32134574	          0.25062031	          0.59260549	          0.86147060	          0.35707798	          0.14242459	          0.05000000	          0.05000000	
